<?xml version="1.0" standalone="no"?>
<!DOCTYPE svg PUBLIC "-//W3C//DTD SVG 20010904//EN"
 "http://www.w3.org/TR/2001/REC-SVG-20010904/DTD/svg10.dtd">
<svg version="1.0" xmlns="http://www.w3.org/2000/svg"
 width="468pt" height="432pt" viewBox="0 0 468 432"
 preserveAspectRatio="xMidYMid meet">
<metadata>
Created by potrace 1.2, written by Peter Selinger 2001-2003
</metadata>
<g transform="translate(0,432) scale(0.230542,-0.230542)"
fill="#000000" stroke="none">
<path d="M887 1783 c-10 -17 13 -53 33 -53 29 0 25 -19 -7 -31 -17 -6 -23 -13
-16 -20 6 -6 19 -6 38 1 20 7 31 7 41 -1 11 -9 8 -15 -19 -33 -17 -12 -56 -54
-86 -94 -53 -72 -54 -73 -75 -54 -36 31 -99 54 -163 60 -65 5 -147 -10 -173
-32 -8 -8 -23 -14 -32 -14 -10 -1 -29 -2 -43 -3 -13 -1 -22 -6 -19 -11 4 -5
-2 -9 -12 -7 -60 7 -189 -84 -230 -164 -15 -28 -15 -31 2 -44 10 -7 23 -13 30
-13 6 0 17 -7 24 -15 7 -8 18 -15 24 -15 6 1 0 9 -12 20 -21 18 -23 23 -13 53
16 47 78 104 139 127 53 20 171 29 142 10 -12 -8 -12 -10 4 -16 10 -4 21 -2
25 5 10 15 58 4 65 -15 3 -8 18 -14 34 -14 16 0 42 -11 58 -25 31 -27 76 -36
55 -12 -9 11 2 17 52 31 56 16 70 25 149 106 62 62 97 90 120 95 46 10 49 13
36 40 -7 16 -20 25 -34 25 -31 0 -37 25 -11 44 22 16 21 16 -13 14 -29 -3 -36
1 -38 18 -4 28 -63 57 -75 37z m-202 -253 c54 -14 115 -41 115 -51 0 -17 -21
-19 -57 -4 -46 20 -162 30 -183 16 -25 -17 -1 -25 68 -23 68 3 122 -9 122 -27
0 -5 -19 -17 -42 -26 l-43 -16 -100 45 c-55 25 -113 46 -128 46 -16 0 -26 4
-23 9 4 5 18 6 34 2 20 -6 39 -1 71 16 48 25 102 29 166 13z"/>
<path d="M555 1519 c-10 -15 -4 -18 27 -12 15 3 25 9 22 14 -7 12 -41 11 -49
-2z"/>
<path d="M640 1520 c0 -5 5 -10 11 -10 5 0 7 5 4 10 -3 6 -8 10 -11 10 -2 0
-4 -4 -4 -10z"/>
<path d="M1463 1752 c-7 -5 -9 -13 -3 -21 11 -18 2 -41 -16 -41 -31 0 -95 -33
-90 -46 3 -9 -2 -14 -14 -14 -11 0 -20 7 -20 15 0 8 -4 15 -10 15 -6 0 -6 -9
-1 -22 7 -19 19 -24 67 -31 56 -7 213 -5 244 4 26 8 40 20 40 35 0 12 -5 11
-26 -5 -19 -15 -39 -21 -73 -19 l-46 1 43 4 c66 6 48 36 -36 59 -26 7 -39 13
-29 13 21 1 23 19 3 27 -8 3 -12 12 -9 20 6 15 -5 18 -24 6z m31 -103 c-7 -12
-44 -12 -44 0 0 5 6 11 13 14 17 6 38 -3 31 -14z m-69 1 c-3 -5 -12 -10 -18
-10 -7 0 -6 4 3 10 19 12 23 12 15 0z m3 -27 c-10 -2 -28 -2 -40 0 -13 2 -5 4
17 4 22 1 32 -1 23 -4z m77 -3 c3 -5 1 -10 -4 -10 -6 0 -11 5 -11 10 0 6 2 10
4 10 3 0 8 -4 11 -10z"/>
<path d="M1430 1715 c0 -8 2 -15 4 -15 2 0 6 7 10 15 3 8 1 15 -4 15 -6 0 -10
-7 -10 -15z"/>
<path d="M1003 1586 c-13 -6 -23 -18 -24 -26 0 -8 -2 -25 -5 -37 -6 -32 8 -28
28 7 9 17 25 30 34 30 16 0 16 2 -2 16 -10 8 -13 12 -5 8 9 -5 12 -3 7 4 -4 7
-8 11 -9 11 -1 -1 -12 -6 -24 -13z"/>
<path d="M1317 1594 c-3 -3 -3 -31 0 -61 5 -45 3 -54 -7 -48 -8 5 -11 4 -7 -3
4 -5 16 -8 28 -5 11 3 16 9 11 12 -5 3 2 15 16 25 22 17 25 17 19 3 -4 -12 -1
-17 11 -17 9 0 -2 -9 -26 -20 -24 -11 -56 -18 -72 -16 -26 3 -28 1 -19 -16 13
-25 55 -19 100 13 16 11 29 18 29 15 0 -14 -78 -56 -104 -56 -41 0 -109 22
-123 40 -7 8 -17 32 -23 53 -10 36 -12 37 -56 37 -40 0 -51 -5 -97 -49 -29
-27 -59 -46 -67 -44 -13 4 -13 3 0 -6 13 -10 11 -15 -15 -37 -87 -74 -198 -85
-311 -32 -61 29 -79 33 -156 33 -80 0 -89 -2 -130 -30 -44 -32 -98 -113 -97
-150 0 -19 20 -55 31 -55 3 0 10 17 16 38 14 45 61 106 62 80 0 -33 28 -18 37
20 5 20 13 36 18 35 6 0 13 4 17 10 5 8 38 12 90 12 72 0 90 -4 138 -29 52
-27 59 -28 158 -24 95 4 106 7 146 35 24 17 62 34 85 38 44 7 102 41 109 65 4
11 -1 11 -22 -4 -15 -9 -48 -24 -73 -31 l-45 -14 23 26 c34 36 60 48 69 33 11
-17 30 -3 30 22 0 19 2 18 22 -7 12 -15 22 -37 23 -49 1 -12 8 -20 16 -19 8 2
24 -14 37 -33 13 -20 18 -33 11 -28 -7 4 -35 8 -63 7 -38 0 -54 -5 -66 -21 -9
-11 -35 -26 -58 -33 -47 -14 -56 -29 -15 -26 19 1 28 -3 31 -15 4 -21 -22 -24
-63 -8 -24 9 -26 8 -21 -7 6 -14 4 -15 -5 -6 -7 7 -29 10 -59 6 -25 -3 -69 0
-97 6 -40 8 -63 7 -110 -4 -75 -19 -201 -83 -285 -145 -53 -40 -68 -57 -73
-83 -11 -59 37 -187 70 -187 31 0 36 27 13 66 -12 22 -26 40 -30 42 -15 7 -8
67 11 98 11 17 39 41 64 53 25 12 51 29 58 37 7 8 22 20 33 26 12 6 -1 -10
-29 -36 -27 -25 -54 -46 -59 -46 -5 0 -3 -6 3 -14 12 -15 9 -37 -16 -119 -15
-47 -11 -76 7 -47 5 8 12 12 15 8 4 -3 -22 -34 -57 -69 -36 -35 -58 -64 -51
-66 8 -3 3 -19 -17 -51 -22 -35 -26 -50 -18 -60 9 -11 16 -8 35 15 l24 28 -24
-45 c-13 -25 -34 -61 -46 -82 -14 -23 -18 -39 -11 -43 5 -3 10 -14 10 -23 1
-20 44 -72 60 -72 5 0 10 -6 10 -13 0 -8 10 -19 22 -25 13 -7 30 -17 40 -24
13 -9 20 -9 32 2 15 12 15 15 -5 37 -13 12 -18 23 -12 23 13 0 43 -33 43 -47
0 -6 9 -9 21 -6 11 3 18 11 15 18 -2 6 0 18 4 26 11 16 -25 59 -49 59 -12 0
-12 2 2 13 29 21 47 90 35 131 -16 52 -25 44 -20 -17 4 -46 1 -57 -22 -84 -14
-16 -24 -32 -23 -34 1 -3 -2 -1 -7 3 -5 4 -11 32 -14 63 -4 53 -3 56 34 90 45
41 54 43 54 11 0 -13 6 -26 14 -29 11 -4 13 3 10 31 -6 45 10 76 26 52 5 -8
11 -19 13 -24 2 -5 12 -6 23 -2 18 7 18 8 2 20 -26 19 -22 58 12 104 29 40 50
54 50 32 0 -5 11 -10 24 -10 15 0 37 -15 60 -40 28 -31 36 -48 36 -78 0 -42
54 -162 72 -162 6 0 16 -8 23 -17 7 -9 21 -18 31 -19 10 -2 20 -8 22 -14 2 -6
9 -16 16 -23 6 -6 17 -24 23 -39 13 -30 57 -40 66 -15 4 7 6 6 6 -4 1 -18 42
-30 62 -19 7 5 9 19 6 36 -6 27 -6 27 5 7 18 -37 42 -30 34 10 -6 33 -24 51
-96 100 -47 32 -90 111 -90 168 0 23 -7 42 -20 54 -11 10 -32 44 -47 76 -16
32 -36 61 -46 65 -31 10 -13 14 20 5 35 -10 95 -60 88 -72 -3 -4 4 -14 16 -23
16 -11 28 -12 47 -5 33 13 36 7 12 -23 -25 -33 -13 -45 17 -16 19 17 23 19 17
5 -3 -9 -2 -17 4 -17 5 0 13 7 16 16 4 9 9 14 13 11 3 -4 12 -2 20 5 11 8 12
7 7 -6 -3 -9 -10 -16 -15 -16 -5 0 -9 -4 -9 -10 0 -20 20 -9 35 20 18 35 19
44 3 34 -7 -5 -8 -3 -4 5 5 7 10 10 13 7 5 -5 63 78 63 90 0 2 -12 1 -27 -2
-22 -6 -25 -4 -20 10 12 30 -8 16 -28 -21 -20 -36 -45 -55 -45 -33 0 6 4 9 10
5 5 -3 17 10 28 30 10 20 29 42 42 48 26 13 85 117 66 117 -6 1 4 7 22 15 18
8 35 22 38 32 3 10 14 37 26 60 15 31 19 52 14 77 -6 32 -3 39 31 70 21 19 40
32 42 30 3 -3 -12 -18 -33 -35 -26 -22 -35 -36 -31 -48 4 -9 9 -43 10 -76 3
-55 3 -58 -10 -35 -16 29 -20 22 -30 -54 -7 -53 -42 -129 -85 -186 -44 -59
-100 -167 -100 -194 0 -14 -9 -35 -20 -46 -27 -27 -27 -44 0 -30 23 12 59 79
61 112 1 16 3 18 6 6 2 -10 -3 -45 -12 -79 -12 -49 -13 -64 -3 -70 9 -6 9 -13
-1 -35 -11 -25 -11 -26 4 -14 14 12 15 10 5 -14 -5 -15 -10 -39 -9 -54 l0 -27
11 25 10 25 12 -32 c15 -42 26 -52 26 -22 0 19 2 21 10 9 5 -8 10 -25 10 -37
0 -14 6 -23 15 -23 8 0 15 5 15 10 0 6 5 10 11 10 5 0 8 -4 5 -8 -3 -5 1 -18
9 -29 12 -17 24 -20 78 -18 66 2 146 30 147 51 0 6 -11 23 -25 38 -19 21 -30
26 -48 20 -31 -11 -67 -6 -93 11 -39 25 -44 46 -34 131 8 73 7 83 -16 127 -13
27 -23 63 -23 80 1 32 1 32 8 -5 10 -50 56 -108 85 -108 37 0 39 13 4 24 -35
12 -66 57 -67 98 -1 36 52 139 80 156 21 13 21 13 14 -10 -4 -12 -7 -31 -6
-40 2 -44 2 -55 -4 -83 -6 -27 -4 -25 19 14 20 33 25 52 20 76 -8 43 10 53 33
19 17 -26 19 -71 4 -86 -4 -5 -5 7 -3 26 2 21 -2 44 -12 58 l-16 22 0 -21 c0
-12 4 -24 9 -28 6 -3 -3 -33 -19 -67 -22 -45 -26 -64 -18 -69 8 -5 17 3 24 20
7 16 18 32 24 36 9 5 8 -2 -2 -21 -18 -33 -38 -113 -38 -148 0 -32 29 -64 65
-71 l30 -7 -25 21 c-22 18 -25 27 -24 85 1 55 5 72 30 107 27 40 28 42 12 70
-10 16 -15 29 -14 29 2 0 47 -54 101 -120 53 -66 100 -120 106 -120 18 0 8 21
-30 63 -21 23 -65 75 -97 115 -58 72 -59 74 -54 125 3 34 5 42 8 24 4 -32 22
-27 22 7 0 24 -32 61 -43 49 -4 -3 -7 2 -7 12 0 17 1 17 23 -2 24 -22 67 -47
72 -41 2 2 -10 21 -25 43 -50 69 -53 75 -33 68 15 -5 16 -3 6 8 -7 7 -13 17
-13 21 0 15 20 8 62 -22 55 -40 114 -42 128 -4 7 18 15 24 26 20 36 -14 59 39
29 64 -10 8 -12 16 -6 19 20 13 -3 52 -44 77 -33 19 -42 29 -38 44 4 16 -2 23
-26 31 -18 6 -29 14 -26 17 12 12 49 12 56 0 4 -7 11 -9 15 -6 9 10 -56 47
-72 41 -8 -3 -11 -9 -8 -14 3 -5 -2 -6 -11 -3 -13 6 -14 8 -1 18 21 16 9 71
-17 84 -23 11 -301 25 -310 16z m93 -24 c0 -5 -4 -10 -10 -10 -5 0 -10 5 -10
10 0 6 5 10 10 10 6 0 10 -4 10 -10z m167 -16 c-9 -9 -28 6 -21 18 4 6 10 6
17 -1 6 -6 8 -13 4 -17z m3 -24 l-65 -7 55 -3 55 -3 -44 -4 c-25 -3 -55 1 -67
8 -13 6 -30 9 -38 6 -20 -8 -39 -55 -33 -79 3 -10 1 -16 -4 -13 -11 8 -97 -71
-114 -105 -8 -16 -10 -32 -5 -40 5 -8 3 -25 -6 -41 -8 -16 -14 -48 -14 -72 0
-40 -3 -46 -30 -57 -16 -7 -28 -16 -25 -20 9 -14 -35 -89 -65 -110 -16 -12
-34 -36 -39 -53 -8 -27 -9 -28 -10 -8 -1 15 12 36 33 56 33 31 72 93 63 101
-2 2 -16 -13 -31 -34 -27 -39 -116 -111 -116 -94 0 5 11 14 24 20 13 6 46 38
73 70 26 33 63 67 81 76 38 18 46 51 10 41 -21 -6 -21 -6 -5 6 19 15 36 67 29
87 -3 10 -9 9 -26 -6 -11 -11 -34 -27 -51 -37 -16 -9 -23 -11 -14 -4 19 17 34
59 21 59 -6 0 -12 -7 -15 -14 -3 -8 -25 -20 -48 -26 -33 -9 -39 -14 -28 -22
11 -8 11 -9 -2 -5 -17 6 -50 -24 -82 -73 -19 -28 -23 -20 -6 12 10 19 9 20
-10 15 -12 -3 -19 -1 -15 4 3 5 12 9 21 9 8 0 31 14 50 30 19 17 47 33 63 37
16 3 39 16 51 29 12 13 28 24 36 24 14 0 18 26 5 34 -5 3 -24 -8 -43 -25 -19
-16 -41 -29 -49 -29 -9 0 -5 7 11 18 15 9 38 25 53 36 15 10 28 17 29 15 28
-41 60 -79 64 -75 7 7 -35 73 -77 121 -19 22 -24 31 -11 20 13 -11 32 -18 43
-17 17 3 20 -1 16 -21 -3 -13 1 -32 8 -42 11 -15 14 -14 28 13 15 28 14 31 -2
36 -13 3 -12 4 3 3 34 -3 113 69 121 109 3 19 14 39 23 44 9 5 54 9 101 8 l85
-1 -65 -7z m-153 -6 c-3 -3 -12 -4 -19 -1 -8 3 -5 6 6 6 11 1 17 -2 13 -5z
m73 -23 c0 -5 -6 -12 -12 -15 -7 -3 -1 -5 14 -3 22 3 25 1 16 -12 -6 -9 -19
-17 -29 -17 -14 0 -19 7 -19 28 0 18 5 28 15 28 8 0 15 -4 15 -9z m100 -6 c0
-8 -29 -12 -39 -5 -9 5 -4 8 13 8 14 0 26 -2 26 -3z m61 -56 c22 -11 17 -31
-6 -22 -9 3 -32 2 -53 -2 l-37 -7 38 -14 c27 -9 45 -11 57 -4 26 14 39 12 15
-2 -11 -7 -43 -13 -71 -13 -64 -1 -67 19 -8 52 46 27 40 26 65 12z m-131 -25
c0 -8 -4 -14 -10 -14 -5 0 -10 -15 -10 -33 0 -20 -10 -47 -25 -67 -16 -22 -24
-44 -22 -60 2 -14 2 -19 0 -12 -9 27 -18 10 -16 -30 2 -42 2 -42 -6 -8 l-7 35
-11 -45 c-9 -39 -11 -41 -12 -15 -1 20 15 56 44 105 25 40 44 79 41 85 -2 7 2
25 10 40 8 15 11 32 7 38 -3 6 -1 7 5 3 7 -4 12 -14 12 -22z m-79 -115 c-7
-21 -23 -44 -39 -54 l-27 -18 28 30 c34 36 36 55 2 23 -14 -13 -25 -20 -25
-16 0 4 14 19 31 33 27 23 31 31 26 64 -3 21 -2 41 2 44 11 12 13 -69 2 -106z
m-280 24 c13 -16 12 -17 -4 -4 -11 9 -29 11 -50 7 -23 -4 -28 -3 -17 4 23 15
56 12 71 -7z m579 -23 c0 -5 -7 -7 -15 -4 -8 4 -15 8 -15 10 0 2 7 4 15 4 8 0
15 -4 15 -10z m-220 -22 c0 -5 -4 -6 -10 -3 -6 4 -8 -7 -5 -27 4 -29 4 -30 -4
-8 -14 40 -13 60 4 54 8 -4 15 -10 15 -16z m40 6 c0 -8 -5 -12 -10 -9 -6 4 -8
11 -5 16 9 14 15 11 15 -7z m-450 -4 c13 -9 13 -10 0 -9 -8 1 -26 5 -40 9
l-25 8 25 1 c14 0 32 -4 40 -9z m580 -24 c19 0 43 4 53 8 10 5 17 4 17 -2 0
-5 -20 -15 -45 -21 -38 -10 -52 -9 -80 5 -42 20 -46 29 -7 18 15 -4 43 -8 62
-8z m107 -31 c-4 -8 -11 -15 -17 -15 -14 0 -13 27 3 33 16 6 21 1 14 -18z
m-784 8 c-7 -2 -19 -2 -25 0 -7 3 -2 5 12 5 14 0 19 -2 13 -5z m37 -7 c0 -2
-7 -7 -16 -10 -8 -3 -12 -2 -9 4 6 10 25 14 25 6z m615 -14 c-3 -3 -11 0 -18
7 -9 10 -8 11 6 5 10 -3 15 -9 12 -12z m-942 -4 c-13 -6 -23 -17 -23 -23 0
-18 -25 -36 -54 -39 -13 -1 -32 -8 -40 -16 -13 -10 -16 -10 -16 2 0 18 107 88
134 87 21 0 21 -1 -1 -11z m279 -10 c-7 -7 -13 -21 -13 -32 -1 -18 -2 -18 -6
-3 -4 17 12 47 25 47 3 0 1 -5 -6 -12z m508 -43 c5 -6 5 -17 0 -25 -6 -8 -10
-33 -10 -54 0 -22 -3 -36 -7 -32 -10 10 -4 78 8 93 7 7 6 14 -1 18 -5 3 -9 18
-9 33 l2 27 4 -25 c3 -14 9 -30 13 -35z m-312 6 c10 -6 10 -10 -3 -21 -9 -8
-13 -21 -10 -34 6 -20 5 -20 -6 -2 -9 14 -9 24 -1 37 10 15 7 18 -16 22 -26 4
-26 4 -2 5 14 1 31 -2 38 -7z m282 -6 c7 -8 10 -15 7 -15 -2 0 -10 7 -17 15
-7 8 -10 15 -7 15 2 0 10 -7 17 -15z m-370 -10 c-10 -12 -10 -21 -1 -41 16
-37 14 -80 -6 -95 -15 -11 -16 -11 -5 1 6 8 12 24 12 37 0 13 -6 23 -12 24 -9
0 -10 2 -1 5 8 4 8 12 -2 31 -12 23 -12 28 3 39 23 18 27 17 12 -1z m-610 0
c0 -2 -10 -9 -22 -15 -22 -11 -22 -10 -4 4 21 17 26 19 26 11z m899 -49 c1
-11 -7 -29 -18 -40 -10 -12 -35 -52 -55 -90 -30 -58 -36 -79 -35 -125 0 -31
-3 -66 -8 -78 -5 -15 -7 4 -6 58 2 69 6 88 32 135 17 29 31 57 31 60 0 4 11
22 25 40 19 25 24 40 20 66 -4 26 -3 29 4 13 5 -11 10 -29 10 -39z m71 -17 c0
-8 -7 -24 -15 -35 -17 -23 -20 -12 -4 15 9 14 8 25 -5 51 -22 45 -20 52 4 15
11 -16 20 -37 20 -46z m-393 26 c0 -8 -4 -12 -9 -9 -4 3 -8 -3 -9 -13 0 -11
-3 -13 -6 -5 -3 7 1 19 7 27 15 19 17 19 17 0z m-477 -9 c0 -3 -14 -15 -31
-27 -25 -18 -33 -19 -39 -8 -7 10 0 17 23 25 37 14 47 16 47 10z m414 -23 c-4
-16 -11 -32 -15 -37 -5 -6 -9 -17 -9 -25 0 -11 11 -5 30 17 17 18 30 29 30 24
0 -5 -13 -21 -30 -37 -25 -24 -30 -26 -36 -11 -3 9 -2 22 4 29 5 6 12 24 16
40 3 15 9 27 11 27 3 0 2 -12 -1 -27z m-458 -56 c-15 -19 -26 -38 -26 -43 -1
-11 -50 -48 -50 -38 0 4 10 19 23 32 l22 25 -25 -12 c-16 -8 -10 2 20 28 55
50 70 53 36 8z m157 -19 c-17 -18 -45 -53 -62 -77 -17 -24 -31 -39 -31 -33 0
6 16 32 36 59 52 68 66 83 78 83 5 0 -4 -15 -21 -32z m200 25 c-7 -2 -21 -2
-30 0 -10 3 -4 5 12 5 17 0 24 -2 18 -5z m607 -13 c6 -11 8 -20 6 -20 -3 0
-10 9 -16 20 -6 11 -8 20 -6 20 3 0 10 -9 16 -20z m-673 4 c-3 -3 -12 -4 -19
-1 -8 3 -5 6 6 6 11 1 17 -2 13 -5z m-44 -11 c-7 -2 -19 -2 -25 0 -7 3 -2 5
12 5 14 0 19 -2 13 -5z m130 -10 c-13 -2 -33 -2 -45 0 -13 2 -3 4 22 4 25 0
35 -2 23 -4z m-123 -23 c0 -5 -15 -10 -33 -10 -18 0 -50 -10 -72 -21 -39 -21
-40 -21 -22 -1 26 29 127 54 127 32z m133 3 c-7 -2 -19 -2 -25 0 -7 3 -2 5 12
5 14 0 19 -2 13 -5z m-165 -50 c-21 -8 -38 -19 -38 -24 0 -5 -5 -9 -11 -9 -16
0 10 30 36 40 11 5 27 9 35 9 8 0 -2 -7 -22 -16z m-258 -8 c0 -2 -18 -22 -40
-44 -47 -47 -52 -41 -9 12 26 32 49 47 49 32z m300 -32 c0 -25 0 -26 -20 -8
-11 10 -20 21 -20 24 0 4 9 7 20 8 15 1 20 -4 20 -24z m165 17 c3 -6 -1 -7 -9
-4 -18 7 -21 14 -7 14 6 0 13 -4 16 -10z m-207 -30 c7 -11 8 -20 2 -20 -5 0
-14 9 -20 20 -6 11 -7 20 -3 20 5 0 14 -9 21 -20z m-7 -27 c35 -37 23 -37 -18
0 -20 18 -30 37 -20 37 2 0 19 -16 38 -37z m319 27 c-8 -5 -19 -10 -25 -10 -5
0 -3 5 5 10 8 5 20 10 25 10 6 0 3 -5 -5 -10z m168 -9 c-8 -13 -8 -35 -1 -79
5 -34 6 -59 2 -57 -3 3 -10 30 -14 61 -6 54 -7 55 -26 38 -33 -30 -21 -7 14
25 37 36 41 38 25 12z m-648 -28 c-11 -17 -11 -17 -6 0 3 10 6 24 7 30 0 9 2
9 5 0 3 -7 0 -20 -6 -30z m410 17 c-8 -5 -19 -10 -25 -10 -5 0 -3 5 5 10 8 5
20 10 25 10 6 0 3 -5 -5 -10z m-457 -80 c-6 -21 -90 -86 -99 -77 -3 3 11 15
31 27 20 12 43 33 52 46 19 29 23 30 16 4z m-138 0 c3 -5 0 -20 -6 -32 -8 -15
-14 -18 -17 -10 -2 7 1 19 8 27 9 11 6 14 -12 18 -22 4 -22 4 -1 6 12 0 25 -3
28 -9z m785 -50 l-11 -25 6 25 c2 14 5 34 6 45 2 19 2 19 6 0 2 -12 -1 -32 -7
-45z m-290 -118 c-1 -15 -40 41 -40 57 0 9 8 3 20 -17 11 -18 20 -36 20 -40z
m-485 48 c-3 -5 -16 -10 -28 -9 -20 1 -20 2 3 9 14 4 26 8 28 9 2 1 0 -3 -3
-9z m443 -45 c-3 -3 -9 2 -12 12 -6 14 -5 15 5 6 7 -7 10 -15 7 -18z m362 -27
c0 -19 -2 -20 -10 -8 -13 19 -13 30 0 30 6 0 10 -10 10 -22z m-834 -33 c-3 -8
-1 -15 5 -15 23 0 2 -33 -23 -36 l-26 -2 20 34 c20 35 35 46 24 19z m34 -75
c0 -5 -4 -10 -9 -10 -6 0 -13 5 -16 10 -3 6 1 10 9 10 9 0 16 -4 16 -10z
m1035 -48 c-3 -3 -11 0 -18 7 -9 10 -8 11 6 5 10 -3 15 -9 12 -12z"/>
<path d="M1255 1370 c3 -5 8 -10 11 -10 2 0 4 5 4 10 0 6 -5 10 -11 10 -5 0
-7 -4 -4 -10z"/>
<path d="M1241 1268 c-5 -13 -7 -25 -5 -27 7 -7 34 21 34 35 0 22 -20 16 -29
-8z"/>
<path d="M659 1169 l-24 -20 28 17 c15 9 27 18 27 20 0 8 -8 4 -31 -17z"/>
<path d="M1070 1570 c0 -5 10 -10 23 -10 18 0 19 2 7 10 -19 13 -30 13 -30 0z"/>
<path d="M929 1497 c7 -7 14 -8 21 -1 6 6 2 10 -12 11 -16 2 -18 -1 -9 -10z"/>
<path d="M1040 1450 c-13 -8 -12 -10 3 -10 9 0 17 5 17 10 0 12 -1 12 -20 0z"/>
<path d="M375 1440 c-3 -5 1 -10 9 -10 9 0 16 5 16 10 0 6 -4 10 -9 10 -6 0
-13 -4 -16 -10z"/>
<path d="M330 1424 c0 -8 5 -12 10 -9 6 3 10 10 10 16 0 5 -4 9 -10 9 -5 0
-10 -7 -10 -16z"/>
<path d="M845 1420 c-3 -5 -2 -17 3 -26 8 -14 10 -14 21 0 13 15 8 36 -9 36
-5 0 -12 -4 -15 -10z"/>
<path d="M276 1404 c-9 -23 -7 -46 3 -40 12 8 21 45 11 51 -4 3 -11 -2 -14
-11z"/>
<path d="M763 1393 c4 -3 2 -12 -4 -20 -9 -10 -7 -13 10 -13 14 0 21 6 21 20
0 12 -7 20 -17 20 -9 0 -13 -3 -10 -7z"/>
<path d="M220 1352 c-8 -15 -12 -31 -11 -36 1 -5 -2 -12 -7 -15 -6 -4 -5 -11
2 -17 19 -17 57 57 41 79 -11 15 -13 14 -25 -11z"/>
<path d="M432 1358 c-7 -7 -12 -25 -12 -40 0 -23 4 -28 24 -28 17 0 26 7 30
24 3 13 9 31 12 40 5 12 0 16 -18 16 -13 0 -29 -5 -36 -12z"/>
<path d="M378 1315 c-4 -20 -2 -25 11 -23 18 4 22 39 5 45 -6 2 -14 -8 -16
-22z"/>
<path d="M1298 1091 c-15 -17 -30 -41 -34 -53 -4 -13 -20 -38 -36 -57 -16 -18
-28 -34 -26 -36 2 -2 15 -1 29 2 20 4 35 21 64 77 43 82 44 117 3 67z"/>
<path d="M1407 1002 c-10 -10 -17 -34 -18 -53 0 -19 -4 -52 -9 -74 -9 -37 -9
-36 -5 15 5 52 4 54 -10 30 -8 -14 -14 -36 -14 -50 0 -27 53 -99 65 -88 4 4
-4 16 -17 27 -13 11 -20 20 -15 21 6 0 20 -10 33 -22 29 -27 42 -17 14 11 -18
18 -20 31 -17 99 2 44 6 84 10 91 11 17 1 13 -17 -7z"/>
<path d="M1560 971 c0 -4 24 -33 53 -64 29 -31 51 -57 48 -57 -2 0 4 -9 14
-20 9 -10 22 -18 29 -17 6 1 10 -5 8 -14 -1 -9 7 -24 18 -34 24 -21 26 -48 5
-65 -9 -8 -12 -22 -8 -43 11 -57 20 -67 66 -67 36 0 49 -6 77 -35 18 -19 36
-32 39 -30 2 3 -8 18 -23 34 -25 26 -26 32 -15 52 6 13 18 28 26 32 26 16 6
88 -33 120 -19 16 -34 35 -34 42 0 8 -6 18 -14 22 -7 4 -18 18 -25 31 -7 12
-16 20 -22 16 -5 -3 -21 1 -34 10 -13 9 -31 13 -39 10 -23 -9 -111 45 -97 59
17 17 13 25 -14 25 -14 0 -25 -4 -25 -7z m163 -128 c-7 -2 -21 -2 -30 0 -10 3
-4 5 12 5 17 0 24 -2 18 -5z m75 -81 c6 -18 -15 -14 -22 4 -4 10 -1 14 6 12 6
-2 14 -10 16 -16z m-35 -86 c4 -10 1 -13 -9 -9 -15 6 -19 23 -5 23 5 0 11 -7
14 -14z m2 -46 c3 -5 1 -10 -4 -10 -6 0 -11 5 -11 10 0 6 2 10 4 10 3 0 8 -4
11 -10z m43 -10 c-7 -10 -14 -18 -15 -16 -6 6 9 36 18 36 5 0 4 -9 -3 -20z"/>
<path d="M1541 864 c-24 -40 -22 -64 6 -64 9 0 28 -10 41 -22 14 -13 22 -17
18 -10 -10 16 4 15 28 -3 15 -11 22 -12 27 -3 4 7 -12 35 -39 67 -25 31 -49
60 -53 64 -3 5 -16 -8 -28 -29z"/>
<path d="M180 515 c11 -13 8 -15 -17 -15 -18 0 -38 -9 -49 -21 l-19 -21 34 7
c24 5 42 2 67 -11 19 -10 34 -22 34 -26 0 -4 12 -3 26 2 14 6 40 10 57 11 l32
1 -34 8 c-19 5 -42 17 -50 28 -15 18 -71 52 -87 52 -3 0 -1 -7 6 -15z m13 -32
c-7 -2 -19 -2 -25 0 -7 3 -2 5 12 5 14 0 19 -2 13 -5z m62 -33 c3 -5 -1 -10
-9 -10 -9 0 -16 5 -16 10 0 6 4 10 9 10 6 0 13 -4 16 -10z"/>
<path d="M540 281 c0 -11 -6 -22 -12 -25 -10 -5 -10 -7 0 -12 6 -3 12 -23 12
-46 0 -21 6 -46 14 -54 16 -16 76 -19 76 -4 0 6 -11 10 -25 10 -23 0 -25 4
-25 45 0 41 2 45 25 45 14 0 25 5 25 10 0 6 -11 10 -25 10 -18 0 -25 5 -25 20
0 13 -7 20 -20 20 -13 0 -20 -7 -20 -19z"/>
<path d="M1143 285 c-7 -8 -13 -25 -13 -39 0 -13 -6 -27 -12 -30 -10 -5 -10
-7 0 -12 6 -3 12 -21 12 -40 0 -27 4 -34 20 -34 16 0 20 7 20 35 0 31 3 35 25
35 14 0 25 5 25 10 0 6 -11 10 -25 10 -21 0 -25 5 -25 30 0 25 4 30 25 30 14
0 25 5 25 10 0 15 -63 11 -77 -5z"/>
<path d="M1290 281 c0 -11 -6 -22 -12 -25 -10 -5 -10 -7 0 -12 6 -3 12 -23 12
-46 0 -21 6 -46 14 -54 16 -16 76 -19 76 -4 0 6 -11 10 -25 10 -23 0 -25 4
-25 45 0 41 2 45 25 45 14 0 25 5 25 10 0 6 -11 10 -25 10 -18 0 -25 5 -25 20
0 13 -7 20 -20 20 -13 0 -20 -7 -20 -19z"/>
<path d="M70 195 c0 -57 2 -65 19 -65 15 0 20 9 23 43 6 61 -1 87 -23 87 -17
0 -19 -8 -19 -65z"/>
<path d="M133 245 c-19 -21 -16 -25 17 -25 23 0 30 4 30 20 0 23 -29 26 -47 5z"/>
<path d="M240 250 c0 -5 11 -10 25 -10 16 0 25 -6 25 -15 0 -9 -9 -15 -21 -15
-22 0 -49 -22 -49 -40 0 -23 30 -40 69 -40 l41 0 0 51 c0 30 -6 56 -14 65 -16
16 -76 19 -76 4z m50 -80 c0 -11 -7 -20 -15 -20 -8 0 -15 9 -15 20 0 11 7 20
15 20 8 0 15 -9 15 -20z"/>
<path d="M383 245 c-7 -8 -13 -17 -13 -20 0 -14 30 -35 49 -35 14 0 21 -6 21
-20 0 -16 -7 -20 -35 -20 -19 0 -35 -4 -35 -10 0 -5 18 -10 41 -10 39 0 69 17
69 40 0 18 -27 40 -49 40 -12 0 -21 6 -21 15 0 10 11 15 35 15 19 0 35 5 35
10 0 15 -83 11 -97 -5z"/>
<path d="M690 250 c0 -5 11 -10 25 -10 16 0 25 -6 25 -15 0 -9 -9 -15 -21 -15
-22 0 -49 -22 -49 -40 0 -23 30 -40 69 -40 l41 0 0 51 c0 30 -6 56 -14 65 -16
16 -76 19 -76 4z m50 -80 c0 -11 -7 -20 -15 -20 -8 0 -15 9 -15 20 0 11 7 20
15 20 8 0 15 -9 15 -20z"/>
<path d="M833 245 c-7 -8 -13 -17 -13 -20 0 -14 30 -35 49 -35 14 0 21 -6 21
-20 0 -16 -7 -20 -35 -20 -19 0 -35 -4 -35 -10 0 -5 18 -10 41 -10 39 0 69 17
69 40 0 18 -27 40 -49 40 -12 0 -21 6 -21 15 0 10 11 15 35 15 19 0 35 5 35
10 0 15 -83 11 -97 -5z"/>
<path d="M983 245 c-17 -19 -16 -83 1 -101 8 -8 26 -14 41 -14 36 0 55 22 55
65 0 20 -6 43 -14 51 -19 18 -67 18 -83 -1z m57 -50 c0 -33 -4 -45 -15 -45
-11 0 -15 12 -15 45 0 33 4 45 15 45 11 0 15 -12 15 -45z"/>
<path d="M1583 245 c-17 -19 -16 -83 1 -101 8 -8 26 -14 41 -14 36 0 55 22 55
65 0 20 -6 43 -14 51 -19 18 -67 18 -83 -1z m57 -50 c0 -33 -4 -45 -15 -45
-11 0 -15 12 -15 45 0 33 4 45 15 45 11 0 15 -12 15 -45z"/>
<path d="M1720 195 c0 -57 2 -65 19 -65 15 0 20 9 23 43 6 61 -1 87 -23 87
-17 0 -19 -8 -19 -65z"/>
<path d="M1783 245 c-19 -21 -16 -25 17 -25 23 0 30 4 30 20 0 23 -29 26 -47
5z"/>
<path d="M1883 245 c-17 -19 -16 -83 1 -101 8 -8 24 -14 35 -14 12 0 21 -6 21
-15 0 -10 -11 -15 -35 -15 -19 0 -35 -4 -35 -10 0 -15 80 -12 96 4 10 10 14
38 14 90 l0 76 -42 0 c-24 -1 -49 -7 -55 -15z m57 -50 c0 -33 -4 -45 -15 -45
-11 0 -15 12 -15 45 0 33 4 45 15 45 11 0 15 -12 15 -45z"/>
<path d="M1450 150 c0 -15 7 -20 25 -20 18 0 25 5 25 20 0 15 -7 20 -25 20
-18 0 -25 -5 -25 -20z"/>
</g>
</svg>
